<mxfile host="app.diagrams.net" modified="2024-01-29T13:28:14.019Z" agent="Mozilla/5.0 (Windows NT 10.0; Win64; x64) AppleWebKit/537.36 (KHTML, like Gecko) Chrome/120.0.0.0 Safari/537.36" etag="z8NnfSMV9ffDccdTk_JP" version="22.1.16" type="device">
  <diagram id="C5RBs43oDa-KdzZeNtuy" name="Page-1">
    <mxGraphModel dx="802" dy="802" grid="1" gridSize="10" guides="1" tooltips="1" connect="1" arrows="1" fold="1" page="1" pageScale="1" pageWidth="827" pageHeight="1169" math="0" shadow="0">
      <root>
        <mxCell id="WIyWlLk6GJQsqaUBKTNV-0" />
        <mxCell id="WIyWlLk6GJQsqaUBKTNV-1" parent="WIyWlLk6GJQsqaUBKTNV-0" />
        <mxCell id="1Q3RfVguzOiP8SDeDQme-0" value="Ввід потрібної команди" style="rounded=1;whiteSpace=wrap;html=1;" vertex="1" parent="WIyWlLk6GJQsqaUBKTNV-1">
          <mxGeometry x="354" y="80" width="120" height="60" as="geometry" />
        </mxCell>
        <mxCell id="1Q3RfVguzOiP8SDeDQme-3" style="edgeStyle=orthogonalEdgeStyle;rounded=0;orthogonalLoop=1;jettySize=auto;html=1;exitX=1;exitY=0.5;exitDx=0;exitDy=0;entryX=1;entryY=0.5;entryDx=0;entryDy=0;" edge="1" parent="WIyWlLk6GJQsqaUBKTNV-1" source="1Q3RfVguzOiP8SDeDQme-1" target="1Q3RfVguzOiP8SDeDQme-0">
          <mxGeometry relative="1" as="geometry">
            <Array as="points">
              <mxPoint x="530" y="220" />
              <mxPoint x="530" y="110" />
            </Array>
          </mxGeometry>
        </mxCell>
        <mxCell id="1Q3RfVguzOiP8SDeDQme-6" style="edgeStyle=orthogonalEdgeStyle;rounded=0;orthogonalLoop=1;jettySize=auto;html=1;exitX=0.5;exitY=1;exitDx=0;exitDy=0;entryX=0.5;entryY=0;entryDx=0;entryDy=0;" edge="1" parent="WIyWlLk6GJQsqaUBKTNV-1" source="1Q3RfVguzOiP8SDeDQme-1" target="1Q3RfVguzOiP8SDeDQme-5">
          <mxGeometry relative="1" as="geometry">
            <Array as="points">
              <mxPoint x="414" y="300" />
              <mxPoint x="220" y="300" />
            </Array>
          </mxGeometry>
        </mxCell>
        <mxCell id="1Q3RfVguzOiP8SDeDQme-28" style="edgeStyle=orthogonalEdgeStyle;rounded=0;orthogonalLoop=1;jettySize=auto;html=1;exitX=0.5;exitY=1;exitDx=0;exitDy=0;entryX=0.5;entryY=0;entryDx=0;entryDy=0;" edge="1" parent="WIyWlLk6GJQsqaUBKTNV-1" source="1Q3RfVguzOiP8SDeDQme-1" target="1Q3RfVguzOiP8SDeDQme-8">
          <mxGeometry relative="1" as="geometry" />
        </mxCell>
        <mxCell id="1Q3RfVguzOiP8SDeDQme-29" style="edgeStyle=orthogonalEdgeStyle;rounded=0;orthogonalLoop=1;jettySize=auto;html=1;exitX=0.5;exitY=1;exitDx=0;exitDy=0;entryX=0.5;entryY=0;entryDx=0;entryDy=0;" edge="1" parent="WIyWlLk6GJQsqaUBKTNV-1" source="1Q3RfVguzOiP8SDeDQme-1" target="1Q3RfVguzOiP8SDeDQme-25">
          <mxGeometry relative="1" as="geometry">
            <Array as="points">
              <mxPoint x="414" y="300" />
              <mxPoint x="600" y="300" />
            </Array>
          </mxGeometry>
        </mxCell>
        <mxCell id="1Q3RfVguzOiP8SDeDQme-1" value="Перевірка&lt;br&gt;команди" style="rhombus;whiteSpace=wrap;html=1;" vertex="1" parent="WIyWlLk6GJQsqaUBKTNV-1">
          <mxGeometry x="374" y="180" width="80" height="80" as="geometry" />
        </mxCell>
        <mxCell id="1Q3RfVguzOiP8SDeDQme-2" value="" style="endArrow=classic;html=1;rounded=0;entryX=0.5;entryY=0;entryDx=0;entryDy=0;exitX=0.5;exitY=1;exitDx=0;exitDy=0;" edge="1" parent="WIyWlLk6GJQsqaUBKTNV-1" source="1Q3RfVguzOiP8SDeDQme-0" target="1Q3RfVguzOiP8SDeDQme-1">
          <mxGeometry width="50" height="50" relative="1" as="geometry">
            <mxPoint x="420" y="370" as="sourcePoint" />
            <mxPoint x="470" y="320" as="targetPoint" />
          </mxGeometry>
        </mxCell>
        <mxCell id="1Q3RfVguzOiP8SDeDQme-4" value="Ні" style="text;html=1;strokeColor=none;fillColor=none;align=center;verticalAlign=middle;whiteSpace=wrap;rounded=0;" vertex="1" parent="WIyWlLk6GJQsqaUBKTNV-1">
          <mxGeometry x="460" y="190" width="60" height="30" as="geometry" />
        </mxCell>
        <mxCell id="1Q3RfVguzOiP8SDeDQme-11" style="edgeStyle=orthogonalEdgeStyle;rounded=0;orthogonalLoop=1;jettySize=auto;html=1;exitX=0.5;exitY=1;exitDx=0;exitDy=0;entryX=0.5;entryY=0;entryDx=0;entryDy=0;" edge="1" parent="WIyWlLk6GJQsqaUBKTNV-1" source="1Q3RfVguzOiP8SDeDQme-5" target="1Q3RfVguzOiP8SDeDQme-10">
          <mxGeometry relative="1" as="geometry" />
        </mxCell>
        <mxCell id="1Q3RfVguzOiP8SDeDQme-5" value="help" style="rounded=0;whiteSpace=wrap;html=1;" vertex="1" parent="WIyWlLk6GJQsqaUBKTNV-1">
          <mxGeometry x="160" y="330" width="120" height="60" as="geometry" />
        </mxCell>
        <mxCell id="1Q3RfVguzOiP8SDeDQme-7" value="Так" style="text;html=1;strokeColor=none;fillColor=none;align=center;verticalAlign=middle;whiteSpace=wrap;rounded=0;" vertex="1" parent="WIyWlLk6GJQsqaUBKTNV-1">
          <mxGeometry x="400" y="260" width="60" height="30" as="geometry" />
        </mxCell>
        <mxCell id="1Q3RfVguzOiP8SDeDQme-27" style="edgeStyle=orthogonalEdgeStyle;rounded=0;orthogonalLoop=1;jettySize=auto;html=1;exitX=0.5;exitY=1;exitDx=0;exitDy=0;entryX=0.5;entryY=0;entryDx=0;entryDy=0;" edge="1" parent="WIyWlLk6GJQsqaUBKTNV-1" source="1Q3RfVguzOiP8SDeDQme-8" target="1Q3RfVguzOiP8SDeDQme-19">
          <mxGeometry relative="1" as="geometry" />
        </mxCell>
        <mxCell id="1Q3RfVguzOiP8SDeDQme-8" value="Інші команди" style="rounded=0;whiteSpace=wrap;html=1;" vertex="1" parent="WIyWlLk6GJQsqaUBKTNV-1">
          <mxGeometry x="354" y="330" width="120" height="60" as="geometry" />
        </mxCell>
        <mxCell id="1Q3RfVguzOiP8SDeDQme-12" style="edgeStyle=orthogonalEdgeStyle;rounded=0;orthogonalLoop=1;jettySize=auto;html=1;exitX=0;exitY=0.5;exitDx=0;exitDy=0;entryX=0;entryY=0.5;entryDx=0;entryDy=0;" edge="1" parent="WIyWlLk6GJQsqaUBKTNV-1" source="1Q3RfVguzOiP8SDeDQme-10" target="1Q3RfVguzOiP8SDeDQme-0">
          <mxGeometry relative="1" as="geometry" />
        </mxCell>
        <mxCell id="1Q3RfVguzOiP8SDeDQme-10" value="Вивід команд" style="rounded=0;whiteSpace=wrap;html=1;" vertex="1" parent="WIyWlLk6GJQsqaUBKTNV-1">
          <mxGeometry x="160" y="440" width="120" height="60" as="geometry" />
        </mxCell>
        <mxCell id="1Q3RfVguzOiP8SDeDQme-17" style="edgeStyle=orthogonalEdgeStyle;rounded=0;orthogonalLoop=1;jettySize=auto;html=1;exitX=1;exitY=0.5;exitDx=0;exitDy=0;entryX=1;entryY=0.5;entryDx=0;entryDy=0;" edge="1" parent="WIyWlLk6GJQsqaUBKTNV-1" source="1Q3RfVguzOiP8SDeDQme-15" target="1Q3RfVguzOiP8SDeDQme-0">
          <mxGeometry relative="1" as="geometry">
            <Array as="points">
              <mxPoint x="680" y="575" />
              <mxPoint x="680" y="110" />
            </Array>
          </mxGeometry>
        </mxCell>
        <mxCell id="1Q3RfVguzOiP8SDeDQme-26" style="edgeStyle=orthogonalEdgeStyle;rounded=0;orthogonalLoop=1;jettySize=auto;html=1;exitX=0.5;exitY=1;exitDx=0;exitDy=0;entryX=0.5;entryY=0;entryDx=0;entryDy=0;" edge="1" parent="WIyWlLk6GJQsqaUBKTNV-1" source="1Q3RfVguzOiP8SDeDQme-15">
          <mxGeometry relative="1" as="geometry">
            <mxPoint x="409" y="650" as="targetPoint" />
          </mxGeometry>
        </mxCell>
        <mxCell id="1Q3RfVguzOiP8SDeDQme-15" value="Перевірка&lt;br&gt;команди" style="rhombus;whiteSpace=wrap;html=1;" vertex="1" parent="WIyWlLk6GJQsqaUBKTNV-1">
          <mxGeometry x="370" y="535" width="80" height="80" as="geometry" />
        </mxCell>
        <mxCell id="1Q3RfVguzOiP8SDeDQme-18" value="Ні" style="text;html=1;strokeColor=none;fillColor=none;align=center;verticalAlign=middle;whiteSpace=wrap;rounded=0;" vertex="1" parent="WIyWlLk6GJQsqaUBKTNV-1">
          <mxGeometry x="440" y="550" width="60" height="30" as="geometry" />
        </mxCell>
        <mxCell id="1Q3RfVguzOiP8SDeDQme-30" style="edgeStyle=orthogonalEdgeStyle;rounded=0;orthogonalLoop=1;jettySize=auto;html=1;exitX=0.5;exitY=1;exitDx=0;exitDy=0;entryX=0.5;entryY=0;entryDx=0;entryDy=0;" edge="1" parent="WIyWlLk6GJQsqaUBKTNV-1" source="1Q3RfVguzOiP8SDeDQme-19" target="1Q3RfVguzOiP8SDeDQme-15">
          <mxGeometry relative="1" as="geometry" />
        </mxCell>
        <mxCell id="1Q3RfVguzOiP8SDeDQme-19" value="Введення даних" style="shape=parallelogram;perimeter=parallelogramPerimeter;whiteSpace=wrap;html=1;fixedSize=1;" vertex="1" parent="WIyWlLk6GJQsqaUBKTNV-1">
          <mxGeometry x="349" y="440" width="130" height="60" as="geometry" />
        </mxCell>
        <mxCell id="1Q3RfVguzOiP8SDeDQme-21" style="edgeStyle=orthogonalEdgeStyle;rounded=0;orthogonalLoop=1;jettySize=auto;html=1;exitX=0.5;exitY=1;exitDx=0;exitDy=0;entryX=0.5;entryY=0;entryDx=0;entryDy=0;" edge="1" parent="WIyWlLk6GJQsqaUBKTNV-1" source="1Q3RfVguzOiP8SDeDQme-20" target="1Q3RfVguzOiP8SDeDQme-0">
          <mxGeometry relative="1" as="geometry" />
        </mxCell>
        <mxCell id="1Q3RfVguzOiP8SDeDQme-20" value="Запуск" style="ellipse;whiteSpace=wrap;html=1;" vertex="1" parent="WIyWlLk6GJQsqaUBKTNV-1">
          <mxGeometry x="354" y="20" width="120" height="30" as="geometry" />
        </mxCell>
        <mxCell id="1Q3RfVguzOiP8SDeDQme-31" style="edgeStyle=orthogonalEdgeStyle;rounded=0;orthogonalLoop=1;jettySize=auto;html=1;exitX=0;exitY=0.5;exitDx=0;exitDy=0;entryX=0;entryY=0.5;entryDx=0;entryDy=0;" edge="1" parent="WIyWlLk6GJQsqaUBKTNV-1" target="1Q3RfVguzOiP8SDeDQme-0">
          <mxGeometry relative="1" as="geometry">
            <mxPoint x="349" y="680" as="sourcePoint" />
            <Array as="points">
              <mxPoint x="140" y="680" />
              <mxPoint x="140" y="110" />
            </Array>
          </mxGeometry>
        </mxCell>
        <mxCell id="1Q3RfVguzOiP8SDeDQme-24" value="Так" style="text;html=1;strokeColor=none;fillColor=none;align=center;verticalAlign=middle;whiteSpace=wrap;rounded=0;" vertex="1" parent="WIyWlLk6GJQsqaUBKTNV-1">
          <mxGeometry x="400" y="615" width="60" height="30" as="geometry" />
        </mxCell>
        <mxCell id="1Q3RfVguzOiP8SDeDQme-25" value="Вихід" style="ellipse;whiteSpace=wrap;html=1;" vertex="1" parent="WIyWlLk6GJQsqaUBKTNV-1">
          <mxGeometry x="540" y="345" width="120" height="30" as="geometry" />
        </mxCell>
        <mxCell id="1Q3RfVguzOiP8SDeDQme-32" value="Результат запиту" style="shape=parallelogram;perimeter=parallelogramPerimeter;whiteSpace=wrap;html=1;fixedSize=1;" vertex="1" parent="WIyWlLk6GJQsqaUBKTNV-1">
          <mxGeometry x="340" y="650" width="131" height="60" as="geometry" />
        </mxCell>
      </root>
    </mxGraphModel>
  </diagram>
</mxfile>
